<svg xmlns="http://www.w3.org/2000/svg" viewBox="0 0 100 100" width="100" height="100"><path fill="#101010" d="m35.84 47.9 9.57 -9.424s-9.229 -4.004 -3.857 -14.063C45.41 17.139 56.348 18.848 59.18 26.855c3.076 8.74 -5.518 11.719 -5.518 11.719l11.035 9.619ZM24.365 86.914s-0.391 -5.225 2.441 -7.52c9.57 -8.447 16.504 -18.848 18.115 -29.248l10.254 0.098c1.611 10.059 8.887 21.826 15.674 27.393 4.932 2.881 4.834 9.717 4.834 9.717z"/><path fill="#101010" d="M25.391 86.377h49.219q0.391 -4.736 -6.445 -8.887Q61.719 72.559 58.594 65.82t-3.906 -15.088h-9.375q-0.732 8.301 -3.857 15.088T31.836 77.49q-6.885 4.15 -6.445 8.887m24.609 3.613H21.777v-3.613q-0.195 -3.906 2.051 -6.689t6.104 -5.273q5.713 -4.443 8.398 -10.596t3.809 -13.086H28.125L41.992 39.063q-4.199 -3.613 -4.199 -9.18 0 -5.029 3.564 -8.643t8.643 -3.613q5.029 0 8.643 3.613T62.207 29.883q0 5.566 -4.199 9.18l13.867 11.67H57.861q1.123 6.885 3.809 13.086t8.398 10.596q3.857 2.49 6.104 5.273t2.051 6.689v3.613zM36.914 47.559h26.172l-10.986 -9.326q6.543 -1.514 6.543 -8.35 0 -3.711 -2.539 -6.152T50 21.24q-3.564 0 -6.104 2.49t-2.539 6.152q0 6.836 6.543 8.35z"/></svg>
